HIERARCHY
ROOT Hips
{
	OFFSET -0.179506 -22.333345 2.821913
	CHANNELS 6 Xposition Yposition Zposition Zrotation Yrotation Xrotation 
	JOINT LeftUpLeg
	{
		OFFSET 6.951974 -9.140623 -0.681533
		CHANNELS 3 Zrotation Yrotation Xrotation
		JOINT LeftLeg
		{
			OFFSET 3.427654 -37.519855 -0.449580
			CHANNELS 3 Zrotation Yrotation Xrotation
			JOINT LeftFoot
			{
				OFFSET -1.359570 -39.796059 -4.369333
				CHANNELS 3 Zrotation Yrotation Xrotation
				JOINT LeftToe
				{
					OFFSET 2.635814 -5.579078 11.928840
					CHANNELS 3 Zrotation Yrotation Xrotation
					End Site
					{
						OFFSET 0.000000 0.000000 0.000000
					}
				}
			}
		}
	}
	JOINT RightUpLeg
	{
		OFFSET -6.767048 -9.052170 -0.431982
		CHANNELS 3 Zrotation Yrotation Xrotation
		JOINT RightLeg
		{
			OFFSET -3.829005 -38.256897 -0.885003
			CHANNELS 3 Zrotation Yrotation Xrotation
			JOINT RightFoot
			{
				OFFSET 1.577377 -39.841461 -4.231180
				CHANNELS 3 Zrotation Yrotation Xrotation
				JOINT RightToe
				{
					OFFSET -2.537174 -4.814398 12.334795
					CHANNELS 3 Zrotation Yrotation Xrotation
					End Site
					{
						OFFSET 0.000000 0.000000 0.000000
					}
				}
			}
		}
	}
	JOINT Spine
	{
		OFFSET -0.253288 10.896323 -2.669631
		CHANNELS 3 Zrotation Yrotation Xrotation
		JOINT Spine1
		{
			OFFSET 0.548704 13.518043 0.109247
			CHANNELS 3 Zrotation Yrotation Xrotation
			JOINT Spine2
			{
				OFFSET 0.145701 5.292222 2.542457
				CHANNELS 3 Zrotation Yrotation Xrotation
				JOINT Neck
				{
					OFFSET -0.277840 21.387037 -4.285703
					CHANNELS 3 Zrotation Yrotation Xrotation
					JOINT Head
					{
						OFFSET 0.515184 6.496960 5.134897
						CHANNELS 3 Zrotation Yrotation Xrotation
						End Site
						{
							OFFSET 0.000000 0.000000 0.000000
						}
					}
				}
				JOINT LeftShoulder
				{
					OFFSET 7.884473 12.174932 -3.408961
					CHANNELS 3 Zrotation Yrotation Xrotation
					JOINT LeftArm
					{
						OFFSET 9.097692 3.046888 -0.886815
						CHANNELS 3 Zrotation Yrotation Xrotation
						JOINT LeftForeArm
						{
							OFFSET 25.961220 -1.277207 -2.745643
							CHANNELS 3 Zrotation Yrotation Xrotation
							JOINT LeftHand
							{
								OFFSET 24.923361 0.898606 -0.117091
								CHANNELS 3 Zrotation Yrotation Xrotation
								End Site
								{
									OFFSET 0.000000 0.000000 0.000000
								}
							}
						}
					}
				}
				JOINT RightShoulder
				{
					OFFSET -8.175920 11.883285 -3.861528
					CHANNELS 3 Zrotation Yrotation Xrotation
					JOINT RightArm
					{
						OFFSET -9.601238 3.255117 -0.914307
						CHANNELS 3 Zrotation Yrotation Xrotation
						JOINT RightForeArm
						{
							OFFSET -25.374195 -1.332924 -2.140099
							CHANNELS 3 Zrotation Yrotation Xrotation
							JOINT RightHand
							{
								OFFSET -25.529810 0.777228 -0.555919
								CHANNELS 3 Zrotation Yrotation Xrotation
								End Site
								{
									OFFSET 0.000000 0.000000 0.000000
								}
							}
						}
					}
				}
			}
		}
	}
}
MOTION
Frames: 8
Frame Time: 0.033333
-1.384104 103.742470 -69.620987 -175.561252 14.968971 -6.375943 28.996383 6.925163 -3.035639 3.166450 -8.257107 17.917645 -15.067612 9.781684 -1.859673 2.388942 2.603316 -1.627940 -21.209628 -16.628093 -9.872255 1.979597 5.194449 9.119844 21.013953 -16.647137 28.885083 1.912128 -1.269959 3.747099 -2.488928 2.561449 12.214394 -3.495827 -3.658867 -1.740952 9.711688 2.557172 -3.563040 -7.539693 -5.809803 -14.611701 17.296790 1.829016 -29.992124 39.764177 -17.098247 -36.502053 27.474285 -23.500007 -40.131973 5.823950 -5.558127 -31.034784 81.845790 -12.372910 7.957739 -36.562465 17.743270 -27.181176 -14.826521 27.220699 -37.755013 -20.718104 12.744950 -35.961151 -84.467351 20.768152 11.855742 
-1.786232 103.813484 -70.857010 -175.668750 14.739214 -8.582476 27.703484 7.434100 -3.869876 2.728270 -8.989266 20.793735 -14.990940 9.964351 -1.673927 2.523156 2.601111 -1.686656 -18.847638 -16.441444 -16.501772 2.243022 3.978671 9.676036 20.407785 -16.328841 26.537797 1.852509 -1.338483 3.638344 -2.294784 2.214770 15.591796 -3.419290 -3.840201 -1.732784 10.119985 2.394937 -3.522385 -7.819785 -6.030858 -13.015701 17.751970 2.077235 -28.516492 40.267119 -18.006047 -37.114729 28.173962 -21.811655 -39.911668 5.385661 -5.533662 -31.398290 82.306101 -14.677465 8.635485 -37.531912 18.717906 -28.125933 -14.588940 26.326025 -37.530875 -20.080031 12.987726 -36.159397 -86.121570 22.412575 12.036914 
-3.122055 103.987030 -70.651993 -175.594563 15.216393 -12.738465 26.308180 8.063623 -5.861950 1.308434 -10.331842 25.854582 -14.949966 10.630133 -1.437893 2.877457 2.414795 -1.802077 -16.960187 -15.983247 -24.065163 2.767613 2.783656 12.838386 19.002878 -15.668523 24.318278 1.961976 -1.321179 3.562306 -1.776370 1.637318 19.694750 -3.165809 -3.918692 -1.760875 10.334163 2.265949 -3.619425 -8.242887 -6.515277 -10.485980 18.082523 2.284336 -26.531814 40.660830 -19.282869 -37.738579 28.384756 -20.507351 -39.281440 4.582020 -5.384525 -31.030149 83.235204 -16.669971 9.582603 -38.737959 19.807819 -29.177926 -14.157972 25.569766 -37.418174 -19.326399 13.181298 -35.531060 -87.787615 23.635941 12.112172 
-4.888781 104.205925 -70.034035 -175.185788 16.043816 -16.832106 24.602919 8.363023 -7.002464 -0.341098 -11.999947 29.505178 -15.085952 10.327926 -1.115753 3.026334 2.357739 -1.951240 -15.659754 -15.386273 -31.147449 3.278567 0.935225 15.705104 17.773131 -14.892890 21.004578 2.269116 -1.519888 3.638921 -0.654840 0.746929 23.427950 -3.152401 -3.740626 -1.853464 10.121607 2.210512 -3.890428 -8.880962 -6.876121 -7.580245 18.135977 2.310586 -24.562284 40.589065 -20.330667 -37.921358 27.932542 -19.842426 -38.294158 4.345254 -5.241557 -29.686179 83.762654 -17.988906 9.448063 -40.010886 20.774930 -29.780057 -13.143084 24.722802 -36.830319 -19.450402 14.577095 -34.246426 -90.052941 24.417266 11.083183 
-6.609940 104.463737 -67.067703 -175.208818 17.410184 -22.379256 23.212655 9.048626 -8.233223 -2.471766 -13.279504 34.422165 -15.282433 10.491300 -0.665391 3.431332 2.175702 -2.109916 -14.412863 -14.244136 -37.732299 3.148536 -0.397075 19.175335 16.397245 -14.448806 18.990056 2.572306 -1.461294 3.703285 0.210886 -0.198503 27.022489 -3.016581 -3.760959 -2.082385 9.932387 2.245747 -4.020889 -9.452444 -7.212852 -4.759892 18.005566 2.849194 -23.055593 40.378501 -21.468873 -38.131700 27.368066 -19.300567 -37.682768 4.340333 -5.352930 -29.001023 83.474330 -19.417119 10.234642 -41.090677 21.557113 -30.395618 -12.493886 24.255404 -36.706673 -19.329058 15.178836 -33.543512 -90.894073 25.391164 11.354655 
-8.185868 104.689552 -64.240997 -175.281882 18.722189 -27.749883 21.521288 9.547363 -9.165921 -3.848821 -14.113577 35.194668 -15.420595 9.922845 -1.524722 3.707153 2.235172 -2.329857 -12.969663 -13.203539 -43.513124 2.636806 -1.912471 20.552719 15.898815 -14.304249 14.530731 2.902846 -1.720758 3.852341 1.032633 -1.155268 30.505292 -3.087114 -3.767259 -2.822681 9.758359 2.026642 -3.673168 -9.996978 -7.260668 -2.183451 18.284198 3.036985 -20.792797 40.285814 -22.288574 -38.432642 26.950643 -18.988175 -37.073468 3.706749 -4.968578 -28.066365 82.181414 -20.610944 10.787562 -42.206377 22.001401 -30.893866 -11.586639 23.995112 -36.392412 -18.994856 16.181079 -32.530830 -91.169374 26.072484 11.341715 
-9.733566 105.054207 -60.688828 -175.512229 21.396743 -34.513983 18.701966 9.919286 -9.666958 -5.371739 -15.042158 36.558422 -15.591187 10.132563 -0.322282 4.204953 2.057548 -2.891050 -10.947536 -10.958092 -51.953540 1.441984 -3.103975 26.427189 14.854593 -13.390720 12.125458 3.562709 -1.804200 3.774052 2.192267 -3.170510 35.482747 -3.322075 -2.999779 -4.215860 9.854062 1.953618 -3.977538 -11.432583 -7.387697 1.325479 17.471917 3.569538 -17.460834 39.042395 -23.606767 -37.873777 25.574785 -18.013638 -35.160956 2.783302 -5.580393 -26.283761 79.517196 -19.321174 10.594897 -43.204597 23.159422 -31.352661 -11.293771 23.378990 -35.591855 -19.790714 19.007196 -31.831817 -90.168105 26.681580 11.179170 
-11.062553 105.287582 -57.263557 -176.401013 23.303686 -39.017653 17.110861 9.950442 -10.431391 -6.166592 -14.677222 39.403666 -15.523468 10.442918 -0.343730 4.526198 1.912378 -3.163245 -9.943533 -9.350718 -55.941276 0.925169 -3.627417 29.360329 14.329815 -12.627087 9.707545 3.847349 -1.734391 3.654621 2.623575 -4.078740 37.349785 -3.235756 -2.965299 -4.412649 9.742427 1.970298 -4.131481 -11.735406 -7.266869 1.514083 17.633888 4.639132 -17.792268 39.334129 -24.521252 -38.290048 25.193751 -17.813016 -34.604264 2.304139 -5.351961 -26.641324 77.471829 -17.441978 10.496599 -43.737851 24.086893 -31.304709 -11.317147 22.580575 -35.157662 -19.599858 19.312869 -31.443828 -89.123107 26.015207 11.720156 
